<svg id="visual" viewBox="0 0 900 600" width="900" height="600" xmlns="http://www.w3.org/2000/svg" xmlns:xlink="http://www.w3.org/1999/xlink" version="1.1"><path d="M0 218L13.7 212.8C27.3 207.7 54.7 197.3 82 199C109.3 200.7 136.7 214.3 163.8 213.7C191 213 218 198 245.2 197C272.3 196 299.7 209 327 208.8C354.3 208.7 381.7 195.3 409 193.3C436.3 191.3 463.7 200.7 491 207.2C518.3 213.7 545.7 217.3 573 215C600.3 212.7 627.7 204.3 654.8 198.8C682 193.3 709 190.7 736.2 195.7C763.3 200.7 790.7 213.3 818 211.8C845.3 210.3 872.7 194.7 886.3 186.8L900 179L900 0L886.3 0C872.7 0 845.3 0 818 0C790.7 0 763.3 0 736.2 0C709 0 682 0 654.8 0C627.7 0 600.3 0 573 0C545.7 0 518.3 0 491 0C463.7 0 436.3 0 409 0C381.7 0 354.3 0 327 0C299.7 0 272.3 0 245.2 0C218 0 191 0 163.8 0C136.7 0 109.3 0 82 0C54.7 0 27.3 0 13.7 0L0 0Z" fill="#b64dff"></path><path d="M0 168L13.7 166.5C27.3 165 54.7 162 82 165.2C109.3 168.3 136.7 177.7 163.8 178.2C191 178.7 218 170.3 245.2 163.3C272.3 156.3 299.7 150.7 327 148.5C354.3 146.3 381.7 147.7 409 153.2C436.3 158.7 463.7 168.3 491 167.3C518.3 166.3 545.7 154.7 573 148.7C600.3 142.7 627.7 142.3 654.8 147.7C682 153 709 164 736.2 163.2C763.3 162.3 790.7 149.7 818 149.8C845.3 150 872.7 163 886.3 169.5L900 176L900 0L886.3 0C872.7 0 845.3 0 818 0C790.7 0 763.3 0 736.2 0C709 0 682 0 654.8 0C627.7 0 600.3 0 573 0C545.7 0 518.3 0 491 0C463.7 0 436.3 0 409 0C381.7 0 354.3 0 327 0C299.7 0 272.3 0 245.2 0C218 0 191 0 163.8 0C136.7 0 109.3 0 82 0C54.7 0 27.3 0 13.7 0L0 0Z" fill="#9e51f2"></path><path d="M0 136L13.7 135.7C27.3 135.3 54.7 134.7 82 134.8C109.3 135 136.7 136 163.8 131.8C191 127.7 218 118.3 245.2 113C272.3 107.7 299.7 106.3 327 107.3C354.3 108.3 381.7 111.7 409 116.8C436.3 122 463.7 129 491 133.8C518.3 138.7 545.7 141.3 573 140.7C600.3 140 627.7 136 654.8 135C682 134 709 136 736.2 132.5C763.3 129 790.7 120 818 118.3C845.3 116.7 872.7 122.3 886.3 125.2L900 128L900 0L886.3 0C872.7 0 845.3 0 818 0C790.7 0 763.3 0 736.2 0C709 0 682 0 654.8 0C627.7 0 600.3 0 573 0C545.7 0 518.3 0 491 0C463.7 0 436.3 0 409 0C381.7 0 354.3 0 327 0C299.7 0 272.3 0 245.2 0C218 0 191 0 163.8 0C136.7 0 109.3 0 82 0C54.7 0 27.3 0 13.7 0L0 0Z" fill="#8853e3"></path><path d="M0 95L13.7 92.7C27.3 90.3 54.7 85.7 82 86.5C109.3 87.3 136.7 93.7 163.8 94.3C191 95 218 90 245.2 85.2C272.3 80.3 299.7 75.7 327 73.3C354.3 71 381.7 71 409 75.8C436.3 80.7 463.7 90.3 491 94.8C518.3 99.3 545.7 98.7 573 96C600.3 93.3 627.7 88.7 654.8 86.3C682 84 709 84 736.2 86.5C763.3 89 790.7 94 818 91.5C845.3 89 872.7 79 886.3 74L900 69L900 0L886.3 0C872.7 0 845.3 0 818 0C790.7 0 763.3 0 736.2 0C709 0 682 0 654.8 0C627.7 0 600.3 0 573 0C545.7 0 518.3 0 491 0C463.7 0 436.3 0 409 0C381.7 0 354.3 0 327 0C299.7 0 272.3 0 245.2 0C218 0 191 0 163.8 0C136.7 0 109.3 0 82 0C54.7 0 27.3 0 13.7 0L0 0Z" fill="#7453d3"></path><path d="M0 57L13.7 55.3C27.3 53.7 54.7 50.3 82 48.7C109.3 47 136.7 47 163.8 46.5C191 46 218 45 245.2 44C272.3 43 299.7 42 327 44.3C354.3 46.7 381.7 52.3 409 53.7C436.3 55 463.7 52 491 50C518.3 48 545.7 47 573 47.5C600.3 48 627.7 50 654.8 49.5C682 49 709 46 736.2 46.7C763.3 47.3 790.7 51.7 818 53C845.3 54.3 872.7 52.7 886.3 51.8L900 51L900 0L886.3 0C872.7 0 845.3 0 818 0C790.7 0 763.3 0 736.2 0C709 0 682 0 654.8 0C627.7 0 600.3 0 573 0C545.7 0 518.3 0 491 0C463.7 0 436.3 0 409 0C381.7 0 354.3 0 327 0C299.7 0 272.3 0 245.2 0C218 0 191 0 163.8 0C136.7 0 109.3 0 82 0C54.7 0 27.3 0 13.7 0L0 0Z" fill="#6151c3"></path></svg>